<!DOCTYPE svg PUBLIC "-//W3C//DTD SVG 1.1//EN" "http://www.w3.org/Graphics/SVG/1.1/DTD/svg11.dtd">
<!-- Uploaded to: SVG Repo, www.svgrepo.com, Transformed by: SVG Repo Mixer Tools -->
<svg width="800px" height="800px" viewBox="0 0 48 48" xmlns="http://www.w3.org/2000/svg" fill="#6BA66E">
<g id="SVGRepo_bgCarrier" stroke-width="0"/>
<g id="SVGRepo_tracerCarrier" stroke-linecap="round" stroke-linejoin="round"/>
<g id="SVGRepo_iconCarrier"> <path d="M0 0h48v48H0z" fill="none"/> <g id="Shopicon"> <path d="M17.341,33.487l3.173-3.173c1.028,0.554,2.165,0.835,3.303,0.835c1.783,0,3.566-0.68,4.926-2.04 c4.926-4.926,4.222-14.074,4.222-14.074S32.514,15,31.757,15c-2.649,0-9.034,0.426-12.866,4.257 c-2.229,2.229-2.629,5.591-1.206,8.23l-3.173,3.172L17.341,33.487z"/> <path d="M15.022,17.672l-1.553-3.686l-2.784,1.173C13.612,10.775,18.609,8,24,8c8.822,0,16,7.178,16,16h4c0-11.028-8.972-20-20-20 c-6.978,0-13.42,3.723-17.015,9.542l-0.987-2.92l-3.789,1.281l3.305,9.774L15.022,17.672z"/> <path d="M32.978,30.328l1.553,3.686l2.784-1.173C34.388,37.225,29.391,40,24,40c-8.822,0-16-7.178-16-16H4c0,11.028,8.972,20,20,20 c6.978,0,13.42-3.723,17.015-9.542l0.987,2.92l3.789-1.281l-3.305-9.774L32.978,30.328z"/> </g> </g>
</svg>